<mxfile host="65bd71144e">
    <diagram name="Page-1" id="cp84o7B4BJOMeSiZlsK_">
        <mxGraphModel dx="1922" dy="307" grid="1" gridSize="10" guides="1" tooltips="1" connect="1" arrows="1" fold="1" page="1" pageScale="1" pageWidth="850" pageHeight="1100" math="0" shadow="0">
            <root>
                <mxCell id="0"/>
                <mxCell id="1" parent="0"/>
                <mxCell id="RwynLnDdxg68aPMQS0TP-105" value="" style="endArrow=none;html=1;rounded=0;exitX=1;exitY=1;exitDx=0;exitDy=0;entryX=0.25;entryY=0;entryDx=0;entryDy=0;" parent="1" source="RwynLnDdxg68aPMQS0TP-100" target="RwynLnDdxg68aPMQS0TP-99" edge="1">
                    <mxGeometry width="50" height="50" relative="1" as="geometry">
                        <mxPoint x="60" y="730" as="sourcePoint"/>
                        <mxPoint x="110" y="680" as="targetPoint"/>
                    </mxGeometry>
                </mxCell>
                <mxCell id="RwynLnDdxg68aPMQS0TP-106" value="" style="endArrow=none;html=1;rounded=0;exitX=1;exitY=0.5;exitDx=0;exitDy=0;entryX=0;entryY=0.5;entryDx=0;entryDy=0;" parent="1" source="RwynLnDdxg68aPMQS0TP-101" target="RwynLnDdxg68aPMQS0TP-99" edge="1">
                    <mxGeometry width="50" height="50" relative="1" as="geometry">
                        <mxPoint x="60" y="730" as="sourcePoint"/>
                        <mxPoint x="110" y="680" as="targetPoint"/>
                    </mxGeometry>
                </mxCell>
                <mxCell id="RwynLnDdxg68aPMQS0TP-107" value="" style="endArrow=none;html=1;rounded=0;exitX=1.011;exitY=0.357;exitDx=0;exitDy=0;exitPerimeter=0;entryX=0;entryY=1;entryDx=0;entryDy=0;" parent="1" source="RwynLnDdxg68aPMQS0TP-102" target="RwynLnDdxg68aPMQS0TP-99" edge="1">
                    <mxGeometry width="50" height="50" relative="1" as="geometry">
                        <mxPoint x="60" y="730" as="sourcePoint"/>
                        <mxPoint x="110" y="680" as="targetPoint"/>
                    </mxGeometry>
                </mxCell>
                <mxCell id="RwynLnDdxg68aPMQS0TP-108" value="" style="endArrow=none;html=1;rounded=0;exitX=1;exitY=0;exitDx=0;exitDy=0;entryX=0.5;entryY=1;entryDx=0;entryDy=0;" parent="1" source="RwynLnDdxg68aPMQS0TP-103" target="RwynLnDdxg68aPMQS0TP-99" edge="1">
                    <mxGeometry width="50" height="50" relative="1" as="geometry">
                        <mxPoint x="60" y="730" as="sourcePoint"/>
                        <mxPoint x="110" y="680" as="targetPoint"/>
                    </mxGeometry>
                </mxCell>
                <mxCell id="RwynLnDdxg68aPMQS0TP-109" value="" style="endArrow=none;html=1;rounded=0;exitX=0.308;exitY=0.03;exitDx=0;exitDy=0;entryX=1;entryY=0.75;entryDx=0;entryDy=0;exitPerimeter=0;" parent="1" source="RwynLnDdxg68aPMQS0TP-104" target="RwynLnDdxg68aPMQS0TP-99" edge="1">
                    <mxGeometry width="50" height="50" relative="1" as="geometry">
                        <mxPoint x="60" y="730" as="sourcePoint"/>
                        <mxPoint x="110" y="680" as="targetPoint"/>
                    </mxGeometry>
                </mxCell>
                <mxCell id="24" value="" style="endArrow=none;html=1;exitX=1;exitY=0.25;exitDx=0;exitDy=0;entryX=0;entryY=0.5;entryDx=0;entryDy=0;" parent="1" source="RwynLnDdxg68aPMQS0TP-99" target="22" edge="1">
                    <mxGeometry width="50" height="50" relative="1" as="geometry">
                        <mxPoint x="100" y="600" as="sourcePoint"/>
                        <mxPoint x="150" y="550" as="targetPoint"/>
                    </mxGeometry>
                </mxCell>
                <mxCell id="44" value="" style="rounded=0;whiteSpace=wrap;html=1;" parent="1" vertex="1">
                    <mxGeometry x="-515" y="685" width="130" height="70" as="geometry"/>
                </mxCell>
                <mxCell id="RwynLnDdxg68aPMQS0TP-13" value="" style="endArrow=none;html=1;rounded=0;entryX=1;entryY=1;entryDx=0;entryDy=0;exitX=0;exitY=0.25;exitDx=0;exitDy=0;" parent="1" source="RwynLnDdxg68aPMQS0TP-1" target="RwynLnDdxg68aPMQS0TP-5" edge="1">
                    <mxGeometry width="50" height="50" relative="1" as="geometry">
                        <mxPoint x="150" y="190" as="sourcePoint"/>
                        <mxPoint x="200" y="140" as="targetPoint"/>
                    </mxGeometry>
                </mxCell>
                <mxCell id="RwynLnDdxg68aPMQS0TP-14" value="" style="endArrow=none;html=1;rounded=0;exitX=1;exitY=0;exitDx=0;exitDy=0;entryX=0;entryY=0.75;entryDx=0;entryDy=0;" parent="1" source="RwynLnDdxg68aPMQS0TP-4" target="RwynLnDdxg68aPMQS0TP-1" edge="1">
                    <mxGeometry width="50" height="50" relative="1" as="geometry">
                        <mxPoint x="150" y="190" as="sourcePoint"/>
                        <mxPoint x="200" y="140" as="targetPoint"/>
                    </mxGeometry>
                </mxCell>
                <mxCell id="26" value="" style="ellipse;whiteSpace=wrap;html=1;" parent="1" vertex="1">
                    <mxGeometry x="-332.5" y="98.13" width="145" height="103.75" as="geometry"/>
                </mxCell>
                <mxCell id="25" value="" style="ellipse;whiteSpace=wrap;html=1;" parent="1" vertex="1">
                    <mxGeometry x="-290" y="300" width="140" height="100" as="geometry"/>
                </mxCell>
                <mxCell id="RwynLnDdxg68aPMQS0TP-1" value="&lt;font style=&quot;font-size: 18px;&quot;&gt;Seeker&lt;/font&gt;" style="rounded=0;whiteSpace=wrap;html=1;" parent="1" vertex="1">
                    <mxGeometry x="-80" y="220" width="120" height="60" as="geometry"/>
                </mxCell>
                <mxCell id="RwynLnDdxg68aPMQS0TP-2" value="&lt;font style=&quot;font-size: 18px;&quot;&gt;SeekerID&lt;/font&gt;" style="ellipse;whiteSpace=wrap;html=1;" parent="1" vertex="1">
                    <mxGeometry x="-150" y="20" width="120" height="80" as="geometry"/>
                </mxCell>
                <mxCell id="RwynLnDdxg68aPMQS0TP-3" value="&lt;font style=&quot;font-size: 18px;&quot;&gt;Name&lt;/font&gt;" style="ellipse;whiteSpace=wrap;html=1;" parent="1" vertex="1">
                    <mxGeometry x="30" y="70" width="120" height="80" as="geometry"/>
                </mxCell>
                <mxCell id="RwynLnDdxg68aPMQS0TP-4" value="&lt;font style=&quot;font-size: 18px;&quot;&gt;Email&lt;/font&gt;" style="ellipse;whiteSpace=wrap;html=1;" parent="1" vertex="1">
                    <mxGeometry x="-280" y="310" width="120" height="80" as="geometry"/>
                </mxCell>
                <mxCell id="RwynLnDdxg68aPMQS0TP-5" value="&lt;font style=&quot;font-size: 18px;&quot;&gt;Phone&lt;/font&gt;" style="ellipse;whiteSpace=wrap;html=1;" parent="1" vertex="1">
                    <mxGeometry x="-320" y="110" width="120" height="80" as="geometry"/>
                </mxCell>
                <mxCell id="RwynLnDdxg68aPMQS0TP-7" value="&lt;font style=&quot;font-size: 18px;&quot;&gt;Qualification&lt;/font&gt;" style="ellipse;whiteSpace=wrap;html=1;" parent="1" vertex="1">
                    <mxGeometry x="180" y="90" width="120" height="80" as="geometry"/>
                </mxCell>
                <mxCell id="RwynLnDdxg68aPMQS0TP-9" value="" style="endArrow=none;html=1;rounded=0;entryX=0.387;entryY=1.007;entryDx=0;entryDy=0;entryPerimeter=0;exitX=1;exitY=0.25;exitDx=0;exitDy=0;" parent="1" source="RwynLnDdxg68aPMQS0TP-1" target="RwynLnDdxg68aPMQS0TP-7" edge="1">
                    <mxGeometry width="50" height="50" relative="1" as="geometry">
                        <mxPoint x="150" y="190" as="sourcePoint"/>
                        <mxPoint x="200" y="140" as="targetPoint"/>
                    </mxGeometry>
                </mxCell>
                <mxCell id="RwynLnDdxg68aPMQS0TP-10" value="" style="endArrow=none;html=1;rounded=0;entryX=0.333;entryY=0.968;entryDx=0;entryDy=0;entryPerimeter=0;exitX=0.75;exitY=0;exitDx=0;exitDy=0;" parent="1" source="RwynLnDdxg68aPMQS0TP-1" target="RwynLnDdxg68aPMQS0TP-3" edge="1">
                    <mxGeometry width="50" height="50" relative="1" as="geometry">
                        <mxPoint x="150" y="190" as="sourcePoint"/>
                        <mxPoint x="200" y="140" as="targetPoint"/>
                    </mxGeometry>
                </mxCell>
                <mxCell id="RwynLnDdxg68aPMQS0TP-12" value="" style="endArrow=none;html=1;rounded=0;entryX=0.721;entryY=0.915;entryDx=0;entryDy=0;entryPerimeter=0;exitX=0.25;exitY=0;exitDx=0;exitDy=0;" parent="1" source="RwynLnDdxg68aPMQS0TP-1" target="RwynLnDdxg68aPMQS0TP-2" edge="1">
                    <mxGeometry width="50" height="50" relative="1" as="geometry">
                        <mxPoint x="150" y="190" as="sourcePoint"/>
                        <mxPoint x="200" y="140" as="targetPoint"/>
                    </mxGeometry>
                </mxCell>
                <mxCell id="RwynLnDdxg68aPMQS0TP-16" value="&lt;font style=&quot;font-size: 18px;&quot;&gt;SkillSet&lt;/font&gt;" style="rounded=0;whiteSpace=wrap;html=1;" parent="1" vertex="1">
                    <mxGeometry x="760" y="170" width="120" height="60" as="geometry"/>
                </mxCell>
                <mxCell id="RwynLnDdxg68aPMQS0TP-17" value="&lt;font style=&quot;font-size: 18px;&quot;&gt;SkillID&lt;/font&gt;" style="ellipse;whiteSpace=wrap;html=1;" parent="1" vertex="1">
                    <mxGeometry x="690" y="60" width="120" height="80" as="geometry"/>
                </mxCell>
                <mxCell id="RwynLnDdxg68aPMQS0TP-18" value="&lt;font style=&quot;font-size: 18px;&quot;&gt;SkillName&lt;/font&gt;" style="ellipse;whiteSpace=wrap;html=1;" parent="1" vertex="1">
                    <mxGeometry x="890" y="70" width="120" height="80" as="geometry"/>
                </mxCell>
                <mxCell id="RwynLnDdxg68aPMQS0TP-21" value="" style="endArrow=none;html=1;rounded=0;entryX=0.5;entryY=1;entryDx=0;entryDy=0;exitX=0.5;exitY=0;exitDx=0;exitDy=0;" parent="1" source="RwynLnDdxg68aPMQS0TP-16" target="RwynLnDdxg68aPMQS0TP-17" edge="1">
                    <mxGeometry width="50" height="50" relative="1" as="geometry">
                        <mxPoint x="570" y="190" as="sourcePoint"/>
                        <mxPoint x="620" y="140" as="targetPoint"/>
                    </mxGeometry>
                </mxCell>
                <mxCell id="RwynLnDdxg68aPMQS0TP-22" value="" style="endArrow=none;html=1;rounded=0;entryX=0.358;entryY=0.992;entryDx=0;entryDy=0;entryPerimeter=0;exitX=1;exitY=0;exitDx=0;exitDy=0;" parent="1" source="RwynLnDdxg68aPMQS0TP-16" target="RwynLnDdxg68aPMQS0TP-18" edge="1">
                    <mxGeometry width="50" height="50" relative="1" as="geometry">
                        <mxPoint x="570" y="190" as="sourcePoint"/>
                        <mxPoint x="620" y="140" as="targetPoint"/>
                    </mxGeometry>
                </mxCell>
                <mxCell id="RwynLnDdxg68aPMQS0TP-23" value="&lt;font style=&quot;font-size: 18px;&quot;&gt;Possesses&lt;/font&gt;" style="rhombus;whiteSpace=wrap;html=1;" parent="1" vertex="1">
                    <mxGeometry x="355" y="160" width="140" height="130" as="geometry"/>
                </mxCell>
                <mxCell id="RwynLnDdxg68aPMQS0TP-26" value="&lt;font style=&quot;font-size: 18px;&quot;&gt;Company&lt;/font&gt;" style="rounded=0;whiteSpace=wrap;html=1;" parent="1" vertex="1">
                    <mxGeometry x="1275" y="770" width="120" height="60" as="geometry"/>
                </mxCell>
                <mxCell id="RwynLnDdxg68aPMQS0TP-27" value="&lt;font style=&quot;font-size: 18px;&quot;&gt;CompanyID&lt;/font&gt;" style="ellipse;whiteSpace=wrap;html=1;" parent="1" vertex="1">
                    <mxGeometry x="1120" y="890" width="120" height="80" as="geometry"/>
                </mxCell>
                <mxCell id="RwynLnDdxg68aPMQS0TP-29" value="&lt;font style=&quot;font-size: 18px;&quot;&gt;Email&lt;/font&gt;" style="ellipse;whiteSpace=wrap;html=1;" parent="1" vertex="1">
                    <mxGeometry x="1490" y="780" width="120" height="80" as="geometry"/>
                </mxCell>
                <mxCell id="RwynLnDdxg68aPMQS0TP-33" value="&lt;font style=&quot;font-size: 18px;&quot;&gt;CompanyName&lt;/font&gt;" style="ellipse;whiteSpace=wrap;html=1;" parent="1" vertex="1">
                    <mxGeometry x="1240" y="580" width="160" height="120" as="geometry"/>
                </mxCell>
                <mxCell id="RwynLnDdxg68aPMQS0TP-36" value="&lt;font style=&quot;font-size: 18px;&quot;&gt;Industry&lt;/font&gt;" style="ellipse;whiteSpace=wrap;html=1;" parent="1" vertex="1">
                    <mxGeometry x="1430" y="910" width="120" height="90" as="geometry"/>
                </mxCell>
                <mxCell id="RwynLnDdxg68aPMQS0TP-39" value="" style="endArrow=none;html=1;rounded=0;exitX=0.5;exitY=0;exitDx=0;exitDy=0;" parent="1" source="RwynLnDdxg68aPMQS0TP-26" target="RwynLnDdxg68aPMQS0TP-33" edge="1">
                    <mxGeometry width="50" height="50" relative="1" as="geometry">
                        <mxPoint x="190" y="640" as="sourcePoint"/>
                        <mxPoint x="240" y="590" as="targetPoint"/>
                    </mxGeometry>
                </mxCell>
                <mxCell id="RwynLnDdxg68aPMQS0TP-40" value="" style="endArrow=none;html=1;rounded=0;entryX=0;entryY=1;entryDx=0;entryDy=0;exitX=1;exitY=0;exitDx=0;exitDy=0;" parent="1" source="RwynLnDdxg68aPMQS0TP-27" target="RwynLnDdxg68aPMQS0TP-26" edge="1">
                    <mxGeometry width="50" height="50" relative="1" as="geometry">
                        <mxPoint x="190" y="640" as="sourcePoint"/>
                        <mxPoint x="240" y="590" as="targetPoint"/>
                    </mxGeometry>
                </mxCell>
                <mxCell id="RwynLnDdxg68aPMQS0TP-43" value="" style="endArrow=none;html=1;rounded=0;entryX=1;entryY=0.25;entryDx=0;entryDy=0;exitX=0;exitY=0;exitDx=0;exitDy=0;" parent="1" source="RwynLnDdxg68aPMQS0TP-29" target="RwynLnDdxg68aPMQS0TP-26" edge="1">
                    <mxGeometry width="50" height="50" relative="1" as="geometry">
                        <mxPoint x="190" y="640" as="sourcePoint"/>
                        <mxPoint x="240" y="590" as="targetPoint"/>
                    </mxGeometry>
                </mxCell>
                <mxCell id="RwynLnDdxg68aPMQS0TP-44" value="" style="endArrow=none;html=1;rounded=0;entryX=0.64;entryY=1.022;entryDx=0;entryDy=0;entryPerimeter=0;exitX=0;exitY=0;exitDx=0;exitDy=0;" parent="1" source="RwynLnDdxg68aPMQS0TP-36" target="RwynLnDdxg68aPMQS0TP-26" edge="1">
                    <mxGeometry width="50" height="50" relative="1" as="geometry">
                        <mxPoint x="190" y="640" as="sourcePoint"/>
                        <mxPoint x="240" y="590" as="targetPoint"/>
                    </mxGeometry>
                </mxCell>
                <mxCell id="RwynLnDdxg68aPMQS0TP-46" value="&lt;font style=&quot;font-size: 18px;&quot;&gt;Phone&lt;/font&gt;" style="ellipse;whiteSpace=wrap;html=1;" parent="1" vertex="1">
                    <mxGeometry x="1420" y="600" width="120" height="80" as="geometry"/>
                </mxCell>
                <mxCell id="RwynLnDdxg68aPMQS0TP-47" value="" style="endArrow=none;html=1;rounded=0;entryX=0;entryY=1;entryDx=0;entryDy=0;exitX=0.75;exitY=0;exitDx=0;exitDy=0;" parent="1" source="RwynLnDdxg68aPMQS0TP-26" target="RwynLnDdxg68aPMQS0TP-46" edge="1">
                    <mxGeometry width="50" height="50" relative="1" as="geometry">
                        <mxPoint x="350" y="750" as="sourcePoint"/>
                        <mxPoint x="400" y="700" as="targetPoint"/>
                    </mxGeometry>
                </mxCell>
                <mxCell id="RwynLnDdxg68aPMQS0TP-53" value="&lt;font style=&quot;font-size: 18px;&quot;&gt;Posting&lt;/font&gt;" style="rounded=0;whiteSpace=wrap;html=1;" parent="1" vertex="1">
                    <mxGeometry x="770" y="770" width="120" height="60" as="geometry"/>
                </mxCell>
                <mxCell id="RwynLnDdxg68aPMQS0TP-55" value="&lt;font style=&quot;font-size: 18px;&quot;&gt;JobID&lt;/font&gt;" style="ellipse;whiteSpace=wrap;html=1;" parent="1" vertex="1">
                    <mxGeometry x="890" y="620" width="120" height="80" as="geometry"/>
                </mxCell>
                <mxCell id="RwynLnDdxg68aPMQS0TP-56" value="&lt;font style=&quot;font-size: 18px;&quot;&gt;JobTitle&lt;/font&gt;" style="ellipse;whiteSpace=wrap;html=1;" parent="1" vertex="1">
                    <mxGeometry x="810" y="915" width="120" height="80" as="geometry"/>
                </mxCell>
                <mxCell id="RwynLnDdxg68aPMQS0TP-57" value="&lt;font style=&quot;font-size: 18px;&quot;&gt;Description&lt;/font&gt;" style="ellipse;whiteSpace=wrap;html=1;" parent="1" vertex="1">
                    <mxGeometry x="920" y="980" width="120" height="80" as="geometry"/>
                </mxCell>
                <mxCell id="RwynLnDdxg68aPMQS0TP-59" value="&lt;font style=&quot;font-size: 18px;&quot;&gt;JobType&lt;/font&gt;" style="ellipse;whiteSpace=wrap;html=1;" parent="1" vertex="1">
                    <mxGeometry x="580" y="730" width="120" height="80" as="geometry"/>
                </mxCell>
                <mxCell id="RwynLnDdxg68aPMQS0TP-60" value="&lt;font style=&quot;font-size: 18px;&quot;&gt;Salary&lt;/font&gt;" style="ellipse;whiteSpace=wrap;html=1;" parent="1" vertex="1">
                    <mxGeometry x="580" y="860" width="130" height="90" as="geometry"/>
                </mxCell>
                <mxCell id="RwynLnDdxg68aPMQS0TP-61" value="&lt;font style=&quot;font-size: 18px;&quot;&gt;PostingDate&lt;/font&gt;" style="ellipse;whiteSpace=wrap;html=1;" parent="1" vertex="1">
                    <mxGeometry x="950" y="880" width="120" height="80" as="geometry"/>
                </mxCell>
                <mxCell id="RwynLnDdxg68aPMQS0TP-62" value="&lt;font style=&quot;font-size: 18px;&quot;&gt;Deadline&lt;/font&gt;" style="ellipse;whiteSpace=wrap;html=1;" parent="1" vertex="1">
                    <mxGeometry x="680" y="960" width="120" height="80" as="geometry"/>
                </mxCell>
                <mxCell id="RwynLnDdxg68aPMQS0TP-63" value="" style="endArrow=none;html=1;rounded=0;entryX=0.117;entryY=1.02;entryDx=0;entryDy=0;exitX=1;exitY=0;exitDx=0;exitDy=0;entryPerimeter=0;" parent="1" source="RwynLnDdxg68aPMQS0TP-60" target="RwynLnDdxg68aPMQS0TP-53" edge="1">
                    <mxGeometry width="50" height="50" relative="1" as="geometry">
                        <mxPoint x="550" y="860" as="sourcePoint"/>
                        <mxPoint x="600" y="810" as="targetPoint"/>
                    </mxGeometry>
                </mxCell>
                <mxCell id="RwynLnDdxg68aPMQS0TP-64" value="" style="endArrow=none;html=1;rounded=0;entryX=0.991;entryY=0.653;entryDx=0;entryDy=0;entryPerimeter=0;exitX=0;exitY=0.25;exitDx=0;exitDy=0;" parent="1" source="RwynLnDdxg68aPMQS0TP-53" target="RwynLnDdxg68aPMQS0TP-59" edge="1">
                    <mxGeometry width="50" height="50" relative="1" as="geometry">
                        <mxPoint x="870" y="570" as="sourcePoint"/>
                        <mxPoint x="920" y="520" as="targetPoint"/>
                    </mxGeometry>
                </mxCell>
                <mxCell id="RwynLnDdxg68aPMQS0TP-65" value="" style="endArrow=none;html=1;rounded=0;exitX=1;exitY=1;exitDx=0;exitDy=0;" parent="1" source="RwynLnDdxg68aPMQS0TP-53" target="RwynLnDdxg68aPMQS0TP-57" edge="1">
                    <mxGeometry width="50" height="50" relative="1" as="geometry">
                        <mxPoint x="870" y="570" as="sourcePoint"/>
                        <mxPoint x="920" y="520" as="targetPoint"/>
                    </mxGeometry>
                </mxCell>
                <mxCell id="RwynLnDdxg68aPMQS0TP-66" value="" style="endArrow=none;html=1;rounded=0;entryX=0;entryY=0;entryDx=0;entryDy=0;exitX=0.5;exitY=1;exitDx=0;exitDy=0;" parent="1" source="RwynLnDdxg68aPMQS0TP-53" target="RwynLnDdxg68aPMQS0TP-56" edge="1">
                    <mxGeometry width="50" height="50" relative="1" as="geometry">
                        <mxPoint x="870" y="570" as="sourcePoint"/>
                        <mxPoint x="920" y="520" as="targetPoint"/>
                    </mxGeometry>
                </mxCell>
                <mxCell id="RwynLnDdxg68aPMQS0TP-67" value="" style="endArrow=none;html=1;rounded=0;entryX=0.5;entryY=0;entryDx=0;entryDy=0;exitX=0.25;exitY=1;exitDx=0;exitDy=0;" parent="1" source="RwynLnDdxg68aPMQS0TP-53" target="RwynLnDdxg68aPMQS0TP-62" edge="1">
                    <mxGeometry width="50" height="50" relative="1" as="geometry">
                        <mxPoint x="870" y="570" as="sourcePoint"/>
                        <mxPoint x="920" y="520" as="targetPoint"/>
                    </mxGeometry>
                </mxCell>
                <mxCell id="RwynLnDdxg68aPMQS0TP-69" value="" style="endArrow=none;html=1;rounded=0;entryX=0;entryY=1;entryDx=0;entryDy=0;exitX=0.926;exitY=-0.008;exitDx=0;exitDy=0;exitPerimeter=0;" parent="1" source="RwynLnDdxg68aPMQS0TP-53" target="RwynLnDdxg68aPMQS0TP-55" edge="1">
                    <mxGeometry width="50" height="50" relative="1" as="geometry">
                        <mxPoint x="870" y="570" as="sourcePoint"/>
                        <mxPoint x="920" y="520" as="targetPoint"/>
                    </mxGeometry>
                </mxCell>
                <mxCell id="RwynLnDdxg68aPMQS0TP-70" value="" style="endArrow=none;html=1;rounded=0;entryX=0;entryY=0;entryDx=0;entryDy=0;exitX=1;exitY=1;exitDx=0;exitDy=0;" parent="1" source="RwynLnDdxg68aPMQS0TP-53" target="RwynLnDdxg68aPMQS0TP-61" edge="1">
                    <mxGeometry width="50" height="50" relative="1" as="geometry">
                        <mxPoint x="870" y="570" as="sourcePoint"/>
                        <mxPoint x="920" y="520" as="targetPoint"/>
                    </mxGeometry>
                </mxCell>
                <mxCell id="RwynLnDdxg68aPMQS0TP-71" value="&lt;font style=&quot;font-size: 18px;&quot;&gt;Requires&lt;/font&gt;" style="rhombus;whiteSpace=wrap;html=1;" parent="1" vertex="1">
                    <mxGeometry x="770" y="470" width="120" height="110" as="geometry"/>
                </mxCell>
                <mxCell id="RwynLnDdxg68aPMQS0TP-74" value="&lt;font style=&quot;font-size: 18px;&quot;&gt;Creates&lt;/font&gt;" style="rhombus;whiteSpace=wrap;html=1;" parent="1" vertex="1">
                    <mxGeometry x="1030" y="720" width="120" height="100" as="geometry"/>
                </mxCell>
                <mxCell id="RwynLnDdxg68aPMQS0TP-76" value="" style="endArrow=none;html=1;rounded=0;entryX=1;entryY=0.5;entryDx=0;entryDy=0;exitX=0;exitY=0.25;exitDx=0;exitDy=0;" parent="1" source="RwynLnDdxg68aPMQS0TP-26" target="RwynLnDdxg68aPMQS0TP-74" edge="1">
                    <mxGeometry width="50" height="50" relative="1" as="geometry">
                        <mxPoint x="910" y="830" as="sourcePoint"/>
                        <mxPoint x="960" y="780" as="targetPoint"/>
                    </mxGeometry>
                </mxCell>
                <mxCell id="RwynLnDdxg68aPMQS0TP-77" value="" style="endArrow=none;html=1;rounded=0;entryX=0.25;entryY=1;entryDx=0;entryDy=0;exitX=0.6;exitY=0.017;exitDx=0;exitDy=0;exitPerimeter=0;" parent="1" source="RwynLnDdxg68aPMQS0TP-78" target="RwynLnDdxg68aPMQS0TP-26" edge="1">
                    <mxGeometry width="50" height="50" relative="1" as="geometry">
                        <mxPoint x="770" y="1050" as="sourcePoint"/>
                        <mxPoint x="960" y="780" as="targetPoint"/>
                    </mxGeometry>
                </mxCell>
                <mxCell id="RwynLnDdxg68aPMQS0TP-78" value="&lt;font style=&quot;font-size: 18px;&quot;&gt;Location&lt;/font&gt;" style="ellipse;whiteSpace=wrap;html=1;" parent="1" vertex="1">
                    <mxGeometry x="1180" y="990" width="120" height="80" as="geometry"/>
                </mxCell>
                <mxCell id="RwynLnDdxg68aPMQS0TP-80" value="&lt;font style=&quot;font-size: 18px;&quot;&gt;Application&lt;/font&gt;" style="rounded=0;whiteSpace=wrap;html=1;" parent="1" vertex="1">
                    <mxGeometry x="70" y="780" width="120" height="60" as="geometry"/>
                </mxCell>
                <mxCell id="RwynLnDdxg68aPMQS0TP-81" value="&lt;font style=&quot;font-size: 18px;&quot;&gt;ApplicationID&lt;/font&gt;" style="ellipse;whiteSpace=wrap;html=1;" parent="1" vertex="1">
                    <mxGeometry x="-50" y="915" width="120" height="80" as="geometry"/>
                </mxCell>
                <mxCell id="RwynLnDdxg68aPMQS0TP-85" value="&lt;font style=&quot;font-size: 18px;&quot;&gt;ApplicationDate&lt;/font&gt;" style="ellipse;whiteSpace=wrap;html=1;" parent="1" vertex="1">
                    <mxGeometry x="100" y="940" width="140" height="110" as="geometry"/>
                </mxCell>
                <mxCell id="RwynLnDdxg68aPMQS0TP-86" value="&lt;font style=&quot;font-size: 18px;&quot;&gt;Status&lt;/font&gt;" style="ellipse;whiteSpace=wrap;html=1;" parent="1" vertex="1">
                    <mxGeometry x="280" y="910" width="120" height="80" as="geometry"/>
                </mxCell>
                <mxCell id="RwynLnDdxg68aPMQS0TP-90" value="" style="endArrow=none;html=1;rounded=0;exitX=0.686;exitY=0.074;exitDx=0;exitDy=0;entryX=0.139;entryY=1.062;entryDx=0;entryDy=0;entryPerimeter=0;exitPerimeter=0;" parent="1" source="RwynLnDdxg68aPMQS0TP-81" target="RwynLnDdxg68aPMQS0TP-80" edge="1">
                    <mxGeometry width="50" height="50" relative="1" as="geometry">
                        <mxPoint x="170" y="430" as="sourcePoint"/>
                        <mxPoint x="220" y="380" as="targetPoint"/>
                    </mxGeometry>
                </mxCell>
                <mxCell id="RwynLnDdxg68aPMQS0TP-91" value="" style="endArrow=none;html=1;rounded=0;exitX=0.5;exitY=1;exitDx=0;exitDy=0;entryX=0.5;entryY=0;entryDx=0;entryDy=0;" parent="1" source="RwynLnDdxg68aPMQS0TP-80" target="RwynLnDdxg68aPMQS0TP-85" edge="1">
                    <mxGeometry width="50" height="50" relative="1" as="geometry">
                        <mxPoint x="170" y="430" as="sourcePoint"/>
                        <mxPoint x="220" y="380" as="targetPoint"/>
                    </mxGeometry>
                </mxCell>
                <mxCell id="RwynLnDdxg68aPMQS0TP-93" value="" style="endArrow=none;html=1;rounded=0;entryX=0;entryY=0;entryDx=0;entryDy=0;exitX=1;exitY=1;exitDx=0;exitDy=0;" parent="1" source="RwynLnDdxg68aPMQS0TP-80" target="RwynLnDdxg68aPMQS0TP-86" edge="1">
                    <mxGeometry width="50" height="50" relative="1" as="geometry">
                        <mxPoint x="170" y="430" as="sourcePoint"/>
                        <mxPoint x="220" y="380" as="targetPoint"/>
                    </mxGeometry>
                </mxCell>
                <mxCell id="RwynLnDdxg68aPMQS0TP-96" value="&lt;font style=&quot;font-size: 18px;&quot;&gt;applied for&lt;/font&gt;" style="rhombus;whiteSpace=wrap;html=1;" parent="1" vertex="1">
                    <mxGeometry x="390" y="760" width="160" height="130" as="geometry"/>
                </mxCell>
                <mxCell id="RwynLnDdxg68aPMQS0TP-98" value="" style="endArrow=none;html=1;rounded=0;entryX=0;entryY=0.75;entryDx=0;entryDy=0;exitX=1;exitY=0.5;exitDx=0;exitDy=0;" parent="1" source="RwynLnDdxg68aPMQS0TP-96" target="RwynLnDdxg68aPMQS0TP-53" edge="1">
                    <mxGeometry width="50" height="50" relative="1" as="geometry">
                        <mxPoint x="390" y="380" as="sourcePoint"/>
                        <mxPoint x="440" y="330" as="targetPoint"/>
                    </mxGeometry>
                </mxCell>
                <mxCell id="RwynLnDdxg68aPMQS0TP-99" value="&lt;font style=&quot;font-size: 18px;&quot;&gt;Interview&lt;/font&gt;" style="rounded=0;whiteSpace=wrap;html=1;" parent="1" vertex="1">
                    <mxGeometry x="-510" y="690" width="120" height="60" as="geometry"/>
                </mxCell>
                <mxCell id="RwynLnDdxg68aPMQS0TP-100" value="&lt;font style=&quot;font-size: 18px;&quot;&gt;InterviewID&lt;/font&gt;" style="ellipse;whiteSpace=wrap;html=1;" parent="1" vertex="1">
                    <mxGeometry x="-590" y="540" width="120" height="80" as="geometry"/>
                </mxCell>
                <mxCell id="RwynLnDdxg68aPMQS0TP-101" value="&lt;font style=&quot;font-size: 18px;&quot;&gt;InterviewDate&lt;/font&gt;" style="ellipse;whiteSpace=wrap;html=1;" parent="1" vertex="1">
                    <mxGeometry x="-740" y="610" width="120" height="80" as="geometry"/>
                </mxCell>
                <mxCell id="RwynLnDdxg68aPMQS0TP-102" value="&lt;font style=&quot;font-size: 18px;&quot;&gt;Mode&lt;/font&gt;" style="ellipse;whiteSpace=wrap;html=1;" parent="1" vertex="1">
                    <mxGeometry x="-690" y="770" width="120" height="80" as="geometry"/>
                </mxCell>
                <mxCell id="RwynLnDdxg68aPMQS0TP-103" value="&lt;font style=&quot;font-size: 18px;&quot;&gt;Result&lt;/font&gt;" style="ellipse;whiteSpace=wrap;html=1;" parent="1" vertex="1">
                    <mxGeometry x="-540" y="870" width="120" height="80" as="geometry"/>
                </mxCell>
                <mxCell id="RwynLnDdxg68aPMQS0TP-104" value="&lt;font style=&quot;font-size: 18px;&quot;&gt;Feedback&lt;/font&gt;" style="ellipse;whiteSpace=wrap;html=1;" parent="1" vertex="1">
                    <mxGeometry x="-360" y="790" width="120" height="80" as="geometry"/>
                </mxCell>
                <mxCell id="14" value="&lt;font style=&quot;font-size: 18px;&quot;&gt;Applies&lt;/font&gt;" style="rhombus;whiteSpace=wrap;html=1;" parent="1" vertex="1">
                    <mxGeometry x="-30" y="470" width="140" height="140" as="geometry"/>
                </mxCell>
                <mxCell id="17" value="" style="endArrow=none;html=1;entryX=0.5;entryY=1;entryDx=0;entryDy=0;exitX=0.5;exitY=0;exitDx=0;exitDy=0;" parent="1" source="14" target="RwynLnDdxg68aPMQS0TP-1" edge="1">
                    <mxGeometry width="50" height="50" relative="1" as="geometry">
                        <mxPoint x="-30" y="700" as="sourcePoint"/>
                        <mxPoint x="20" y="650" as="targetPoint"/>
                    </mxGeometry>
                </mxCell>
                <mxCell id="18" value="&lt;font style=&quot;font-size: 18px;&quot;&gt;MinQualification&lt;/font&gt;" style="ellipse;whiteSpace=wrap;html=1;" parent="1" vertex="1">
                    <mxGeometry x="640" y="610" width="160" height="100" as="geometry"/>
                </mxCell>
                <mxCell id="19" value="" style="endArrow=none;html=1;entryX=0.18;entryY=-0.027;entryDx=0;entryDy=0;entryPerimeter=0;exitX=0.6;exitY=1.005;exitDx=0;exitDy=0;exitPerimeter=0;" parent="1" source="18" target="RwynLnDdxg68aPMQS0TP-53" edge="1">
                    <mxGeometry width="50" height="50" relative="1" as="geometry">
                        <mxPoint x="640" y="690" as="sourcePoint"/>
                        <mxPoint x="690" y="640" as="targetPoint"/>
                    </mxGeometry>
                </mxCell>
                <mxCell id="22" value="&lt;font style=&quot;font-size: 18px;&quot;&gt;Conducted for&lt;/font&gt;" style="rhombus;whiteSpace=wrap;html=1;" parent="1" vertex="1">
                    <mxGeometry x="-170" y="730" width="140" height="130" as="geometry"/>
                </mxCell>
                <mxCell id="23" value="" style="endArrow=none;html=1;exitX=1;exitY=0.5;exitDx=0;exitDy=0;entryX=0;entryY=0.25;entryDx=0;entryDy=0;" parent="1" source="22" target="RwynLnDdxg68aPMQS0TP-80" edge="1">
                    <mxGeometry width="50" height="50" relative="1" as="geometry">
                        <mxPoint x="100" y="600" as="sourcePoint"/>
                        <mxPoint x="150" y="550" as="targetPoint"/>
                    </mxGeometry>
                </mxCell>
                <mxCell id="27" value="&lt;font style=&quot;font-size: 18px;&quot;&gt;Password&lt;/font&gt;" style="ellipse;whiteSpace=wrap;html=1;" parent="1" vertex="1">
                    <mxGeometry x="100" y="310" width="120" height="80" as="geometry"/>
                </mxCell>
                <mxCell id="28" value="" style="endArrow=none;html=1;entryX=0.75;entryY=1;entryDx=0;entryDy=0;exitX=0;exitY=0;exitDx=0;exitDy=0;" parent="1" source="27" target="RwynLnDdxg68aPMQS0TP-1" edge="1">
                    <mxGeometry width="50" height="50" relative="1" as="geometry">
                        <mxPoint x="-80" y="260" as="sourcePoint"/>
                        <mxPoint x="-30" y="210" as="targetPoint"/>
                    </mxGeometry>
                </mxCell>
                <mxCell id="29" value="&lt;font style=&quot;font-size: 18px;&quot;&gt;Password&lt;/font&gt;" style="ellipse;whiteSpace=wrap;html=1;" parent="1" vertex="1">
                    <mxGeometry x="1340" y="1010" width="120" height="80" as="geometry"/>
                </mxCell>
                <mxCell id="30" value="" style="endArrow=none;html=1;entryX=0.5;entryY=1;entryDx=0;entryDy=0;" parent="1" target="RwynLnDdxg68aPMQS0TP-26" edge="1">
                    <mxGeometry width="50" height="50" relative="1" as="geometry">
                        <mxPoint x="1390" y="1010" as="sourcePoint"/>
                        <mxPoint x="1350" y="820" as="targetPoint"/>
                    </mxGeometry>
                </mxCell>
                <mxCell id="31" value="&lt;font style=&quot;font-size: 18px;&quot;&gt;Onsite&lt;/font&gt;" style="ellipse;whiteSpace=wrap;html=1;" parent="1" vertex="1">
                    <mxGeometry x="1020" y="590" width="120" height="80" as="geometry"/>
                </mxCell>
                <mxCell id="32" value="" style="endArrow=none;html=1;entryX=0.5;entryY=1;entryDx=0;entryDy=0;exitX=1;exitY=0.25;exitDx=0;exitDy=0;" parent="1" source="RwynLnDdxg68aPMQS0TP-53" target="31" edge="1">
                    <mxGeometry width="50" height="50" relative="1" as="geometry">
                        <mxPoint x="820" y="890" as="sourcePoint"/>
                        <mxPoint x="870" y="840" as="targetPoint"/>
                    </mxGeometry>
                </mxCell>
                <mxCell id="33" value="&lt;font style=&quot;font-size: 18px;&quot;&gt;Description&lt;/font&gt;" style="ellipse;whiteSpace=wrap;html=1;" parent="1" vertex="1">
                    <mxGeometry x="930" y="195" width="120" height="80" as="geometry"/>
                </mxCell>
                <mxCell id="34" value="" style="endArrow=none;html=1;entryX=1;entryY=0.5;entryDx=0;entryDy=0;exitX=0.028;exitY=0.395;exitDx=0;exitDy=0;exitPerimeter=0;" parent="1" source="33" target="RwynLnDdxg68aPMQS0TP-16" edge="1">
                    <mxGeometry width="50" height="50" relative="1" as="geometry">
                        <mxPoint x="820" y="310" as="sourcePoint"/>
                        <mxPoint x="870" y="260" as="targetPoint"/>
                    </mxGeometry>
                </mxCell>
                <mxCell id="35" value="" style="endArrow=none;html=1;entryX=0.5;entryY=1;entryDx=0;entryDy=0;exitX=0.385;exitY=-0.039;exitDx=0;exitDy=0;exitPerimeter=0;" parent="1" source="RwynLnDdxg68aPMQS0TP-80" target="14" edge="1">
                    <mxGeometry width="50" height="50" relative="1" as="geometry">
                        <mxPoint x="130" y="800" as="sourcePoint"/>
                        <mxPoint x="180" y="750" as="targetPoint"/>
                    </mxGeometry>
                </mxCell>
                <mxCell id="36" value="" style="endArrow=none;html=1;exitX=1;exitY=0.25;exitDx=0;exitDy=0;entryX=0;entryY=0.5;entryDx=0;entryDy=0;" parent="1" source="RwynLnDdxg68aPMQS0TP-80" target="RwynLnDdxg68aPMQS0TP-96" edge="1">
                    <mxGeometry width="50" height="50" relative="1" as="geometry">
                        <mxPoint x="310" y="800" as="sourcePoint"/>
                        <mxPoint x="360" y="750" as="targetPoint"/>
                    </mxGeometry>
                </mxCell>
                <mxCell id="37" value="" style="endArrow=none;html=1;exitX=1;exitY=0.5;exitDx=0;exitDy=0;entryX=0;entryY=0.5;entryDx=0;entryDy=0;" parent="1" source="RwynLnDdxg68aPMQS0TP-53" target="RwynLnDdxg68aPMQS0TP-74" edge="1">
                    <mxGeometry width="50" height="50" relative="1" as="geometry">
                        <mxPoint x="1000" y="800" as="sourcePoint"/>
                        <mxPoint x="1050" y="750" as="targetPoint"/>
                    </mxGeometry>
                </mxCell>
                <mxCell id="38" value="" style="endArrow=none;html=1;exitX=0.5;exitY=1;exitDx=0;exitDy=0;entryX=0.5;entryY=0;entryDx=0;entryDy=0;" parent="1" source="RwynLnDdxg68aPMQS0TP-71" target="RwynLnDdxg68aPMQS0TP-53" edge="1">
                    <mxGeometry width="50" height="50" relative="1" as="geometry">
                        <mxPoint x="910" y="550" as="sourcePoint"/>
                        <mxPoint x="960" y="500" as="targetPoint"/>
                    </mxGeometry>
                </mxCell>
                <mxCell id="39" value="" style="endArrow=none;html=1;entryX=0.5;entryY=1;entryDx=0;entryDy=0;exitX=0.5;exitY=0;exitDx=0;exitDy=0;" parent="1" source="RwynLnDdxg68aPMQS0TP-71" target="RwynLnDdxg68aPMQS0TP-16" edge="1">
                    <mxGeometry width="50" height="50" relative="1" as="geometry">
                        <mxPoint x="910" y="550" as="sourcePoint"/>
                        <mxPoint x="960" y="500" as="targetPoint"/>
                    </mxGeometry>
                </mxCell>
                <mxCell id="40" value="" style="endArrow=none;html=1;entryX=0;entryY=0.5;entryDx=0;entryDy=0;exitX=1;exitY=0.5;exitDx=0;exitDy=0;" parent="1" source="RwynLnDdxg68aPMQS0TP-23" target="RwynLnDdxg68aPMQS0TP-16" edge="1">
                    <mxGeometry width="50" height="50" relative="1" as="geometry">
                        <mxPoint x="620" y="360" as="sourcePoint"/>
                        <mxPoint x="670" y="310" as="targetPoint"/>
                    </mxGeometry>
                </mxCell>
                <mxCell id="41" value="" style="endArrow=none;html=1;entryX=0;entryY=0.5;entryDx=0;entryDy=0;exitX=1;exitY=0.75;exitDx=0;exitDy=0;" parent="1" source="RwynLnDdxg68aPMQS0TP-1" target="RwynLnDdxg68aPMQS0TP-23" edge="1">
                    <mxGeometry width="50" height="50" relative="1" as="geometry">
                        <mxPoint x="120" y="360" as="sourcePoint"/>
                        <mxPoint x="170" y="310" as="targetPoint"/>
                    </mxGeometry>
                </mxCell>
            </root>
        </mxGraphModel>
    </diagram>
</mxfile>